# xmcd CD database file
#
# Track frame offsets:
#	150
#	9969
#	17578
#	23980
#	33173
#	42625
#	50457
#	59221
#	65309
#	72755
#	86066
#
# Disc length: 1155 seconds
#
# Revision: 0
# Processed by: cddbd v1.4PL0 Copyright (c) Steve Scherf et al.
# Submitted via: CDex 1.51
#
DISCID=8e04810b
DTITLE=Joe The Shaker - Chicken Shack
DYEAR=2001
DGENRE=Country
TTITLE0=CHICKEN SHACK
TTITLE1=BILLY JONES
TTITLE2=SIDEBURNS and LONG HAIR
TTITLE3=SWEETHEART OF MINE
TTITLE4=THEY CALL HER LINDA LOU
TTITLE5=OH, DARLIN'
TTITLE6=HAULIN' MOUNTAIN DEW
TTITLE7=THE BOTTLE GOES EMPTY ON THE SHELF
TTITLE8=MUSKADINE WINE
TTITLE9=PLEDGE OF MY LOVE
TTITLE10=I'll TEACH YA
EXTD=YEAR: 2001
EXTT0=
EXTT1=
EXTT2=
EXTT3=
EXTT4=
EXTT5=
EXTT6=
EXTT7=
EXTT8=
EXTT9=
EXTT10=
PLAYORDER=
